<svg xmlns="http://www.w3.org/2000/svg" viewBox="0 0 64 64" width="64" height="64">
  <circle cx="32" cy="32" r="32" fill="#0a0e27"/>
  <circle cx="32" cy="32" r="30" fill="none" stroke="#f5c518" stroke-width="2.5"/>
  <g fill="#f5c518">
    <rect x="29" y="1"  width="6" height="8"  rx="1.5" transform="rotate(0   32 32)"/>
    <rect x="29" y="1"  width="6" height="8"  rx="1.5" transform="rotate(45  32 32)"/>
    <rect x="29" y="1"  width="6" height="8"  rx="1.5" transform="rotate(90  32 32)"/>
    <rect x="29" y="1"  width="6" height="8"  rx="1.5" transform="rotate(135 32 32)"/>
    <rect x="29" y="1"  width="6" height="8"  rx="1.5" transform="rotate(180 32 32)"/>
    <rect x="29" y="1"  width="6" height="8"  rx="1.5" transform="rotate(225 32 32)"/>
    <rect x="29" y="1"  width="6" height="8"  rx="1.5" transform="rotate(270 32 32)"/>
    <rect x="29" y="1"  width="6" height="8"  rx="1.5" transform="rotate(315 32 32)"/>
  </g>
  <circle cx="32" cy="32" r="18" fill="#0a0e27" stroke="#f5c518" stroke-width="1.5"/>
  <text x="32" y="40" text-anchor="middle" font-family="Arial Black, Arial, sans-serif" font-weight="900" font-size="22" fill="#f5c518">E</text>
</svg>
